<?xml version="1.0" encoding="UTF-8"?> <svg xmlns="http://www.w3.org/2000/svg" viewBox="0 0 679.57 267.44"><defs><style>.cls-1{fill:#10627f;}</style></defs><g id="Layer_2" data-name="Layer 2"><g id="Layer_1-2" data-name="Layer 1"><path class="cls-1" d="M97.87,224.43,86.29,255.87h3.19l2.69-7.34h14.67l2.65,7.34h3.19l-11.53-31.44ZM93.08,246l6.43-17.59L105.89,246Z"></path><rect class="cls-1" x="118.51" y="222.15" width="3.19" height="33.72"></rect><path class="cls-1" d="M146.26,245.21q0,4.09-2,6.24a7.95,7.95,0,0,1-10.85,0q-2-2.14-2-6.24V231h-3.14V245.8q0,5.1,2.77,7.82a9.58,9.58,0,0,0,6.93,2.71q5.75,0,8.25-4.52v4.06h3.19V231h-3.19Z"></path><path class="cls-1" d="M185.67,230.53a10.38,10.38,0,0,0-5.49,1.46,9.62,9.62,0,0,0-3.67,4.1A8.49,8.49,0,0,0,173,232a10.14,10.14,0,0,0-5.31-1.42q-5.75,0-8.25,4.52V231h-3.19v24.88h3.19V241.65q0-4.1,2-6.24a7.95,7.95,0,0,1,10.85,0q2,2.15,2,6.24v14.22h3.15V241.65q0-4.1,2-6.24a7.93,7.93,0,0,1,10.84,0q2,2.15,2,6.24v14.22h3.15V241.06c0-3.4-.93-6-2.78-7.81A9.52,9.52,0,0,0,185.67,230.53Z"></path><rect class="cls-1" x="201.98" y="230.99" width="3.19" height="24.88"></rect><path class="cls-1" d="M203.65,221.61a2.35,2.35,0,1,0,0,4.69,2.18,2.18,0,0,0,1.64-.69,2.42,2.42,0,0,0,0-3.32A2.17,2.17,0,0,0,203.65,221.61Z"></path><path class="cls-1" d="M223.45,230.53q-5.74,0-8.25,4.52V231H212v24.88h3.19V241.65q0-4.1,2-6.24a7.93,7.93,0,0,1,10.84,0q2,2.15,2,6.24v14.22h3.14V241.06c0-3.4-.93-6-2.78-7.81A9.51,9.51,0,0,0,223.45,230.53Z"></path><path class="cls-1" d="M257.48,245.21q0,4.09-2,6.24a7.93,7.93,0,0,1-10.84,0q-2-2.14-2-6.24V231h-3.14V245.8q0,5.1,2.78,7.82a9.55,9.55,0,0,0,6.93,2.71q5.73,0,8.24-4.52v4.06h3.19V231h-3.19Z"></path><path class="cls-1" d="M296.9,230.53a10.33,10.33,0,0,0-5.49,1.46,9.55,9.55,0,0,0-3.67,4.1,8.46,8.46,0,0,0-3.49-4.14,10.08,10.08,0,0,0-5.3-1.42q-5.74,0-8.25,4.52V231h-3.19v24.88h3.19V241.65q0-4.1,2-6.24a7.93,7.93,0,0,1,10.84,0,8.89,8.89,0,0,1,2,6.24v14.22h3.14V241.65q0-4.1,2-6.24a7.95,7.95,0,0,1,10.85,0q2,2.15,2,6.24v14.22h3.14V241.06c0-3.4-.92-6-2.78-7.81A9.51,9.51,0,0,0,296.9,230.53Z"></path><path class="cls-1" d="M343.24,240.72a17.48,17.48,0,0,0-3.42-1.3c-1.25-.33-2.49-.64-3.74-.91a25.63,25.63,0,0,1-3.41-1,5.74,5.74,0,0,1-2.53-1.75,4.63,4.63,0,0,1-1-3.06,5.27,5.27,0,0,1,1.87-4.37,7.46,7.46,0,0,1,4.87-1.51,7.19,7.19,0,0,1,4.74,1.44,4.86,4.86,0,0,1,1.91,3.35h3.6a8.45,8.45,0,0,0-3.09-5.47,11,11,0,0,0-7-2,10.46,10.46,0,0,0-7.15,2.37,7.64,7.64,0,0,0-2.71,6,7.71,7.71,0,0,0,1.82,5.56,9,9,0,0,0,4.4,2.58q2.56.66,5.15,1.16a11,11,0,0,1,4.39,1.8,4.44,4.44,0,0,1,1.82,3.87,5.46,5.46,0,0,1-2,4.31,7.84,7.84,0,0,1-5.33,1.73,7.62,7.62,0,0,1-5-1.43,5.14,5.14,0,0,1-1.87-3.63H326.2a6.6,6.6,0,0,0,2.91,5.65,12.69,12.69,0,0,0,7.59,2.1,10,10,0,0,0,7.36-2.69,8.62,8.62,0,0,0,2.69-6.29,7.69,7.69,0,0,0-1-4.05A6.21,6.21,0,0,0,343.24,240.72Z"></path><polygon class="cls-1" points="361.74 252.13 353.54 230.99 350.12 230.99 360 255.5 355.18 267.44 358.41 267.44 373.18 230.99 369.94 230.99 361.74 252.13"></polygon><path class="cls-1" d="M390.88,243.63c-1.11-.37-2.32-.73-3.6-1.06s-2.49-.63-3.6-.87a5.6,5.6,0,0,1-2.76-1.41,3.76,3.76,0,0,1-1.09-2.85,3.92,3.92,0,0,1,1.48-3.08,6,6,0,0,1,4.07-1.27,5.2,5.2,0,0,1,5.61,5.24h3.28a8.21,8.21,0,0,0-2.44-5.72,8.67,8.67,0,0,0-6.17-2.08,9.84,9.84,0,0,0-6.52,2.13,6.51,6.51,0,0,0-2.55,5.21,5.52,5.52,0,0,0,3.85,5.52c1.11.36,2.31.71,3.6,1s2.49.63,3.6.89a5.88,5.88,0,0,1,2.76,1.43,3.8,3.8,0,0,1,1.09,2.88,3.6,3.6,0,0,1-1.5,3,6.74,6.74,0,0,1-4.22,1.16,5.94,5.94,0,0,1-4.26-1.46,5.24,5.24,0,0,1-1.64-3.78h-3.28a7.92,7.92,0,0,0,2.6,5.7,9.38,9.38,0,0,0,6.45,2.1,10.54,10.54,0,0,0,6.58-1.92,5.93,5.93,0,0,0,2.51-4.92,6.2,6.2,0,0,0-1.1-3.8A5.74,5.74,0,0,0,390.88,243.63Z"></path><path class="cls-1" d="M405.07,224.75h-3.19V231h-3.46v2.51h3.46V250q0,5.88,5.83,5.88H412v-2.51h-3.56a3.56,3.56,0,0,1-2.59-.75,3.7,3.7,0,0,1-.73-2.62V233.5H412V231h-6.88Z"></path><path class="cls-1" d="M426.92,230.53a11.65,11.65,0,0,0-8.8,3.54,12.9,12.9,0,0,0-3.39,9.34,13.14,13.14,0,0,0,3.33,9.36,11.29,11.29,0,0,0,8.65,3.56A11.23,11.23,0,0,0,437.83,249h-3.42a6.8,6.8,0,0,1-2.8,3.46,8.77,8.77,0,0,1-4.9,1.32,8.18,8.18,0,0,1-6.1-2.46,9.82,9.82,0,0,1-2.6-6.74h20.51a15.8,15.8,0,0,0,.18-2.46,11.49,11.49,0,0,0-3.19-8.25A11.34,11.34,0,0,0,426.92,230.53ZM418,242.06a9.57,9.57,0,0,1,2.66-6.58,9,9,0,0,1,12.26,0,8.75,8.75,0,0,1,2.49,6.54Z"></path><path class="cls-1" d="M473.28,230.53a10.38,10.38,0,0,0-5.49,1.46,9.62,9.62,0,0,0-3.67,4.1,8.49,8.49,0,0,0-3.48-4.14,10.14,10.14,0,0,0-5.31-1.42q-5.74,0-8.25,4.52V231h-3.19v24.88h3.19V241.65q0-4.1,2-6.24a7.95,7.95,0,0,1,10.85,0q2,2.15,2,6.24v14.22H465V241.65c0-2.73.65-4.81,2-6.24a7.93,7.93,0,0,1,10.84,0c1.33,1.43,2,3.51,2,6.24v14.22H483V241.06c0-3.4-.93-6-2.78-7.81A9.53,9.53,0,0,0,473.28,230.53Z"></path><path class="cls-1" d="M503.2,243.63c-1.12-.37-2.32-.73-3.61-1.06s-2.49-.63-3.6-.87a5.57,5.57,0,0,1-2.75-1.41,3.76,3.76,0,0,1-1.09-2.85,3.94,3.94,0,0,1,1.47-3.08,6.06,6.06,0,0,1,4.08-1.27,5.43,5.43,0,0,1,4.06,1.48,5.52,5.52,0,0,1,1.55,3.76h3.28a8.21,8.21,0,0,0-2.44-5.72,8.68,8.68,0,0,0-6.18-2.08,9.83,9.83,0,0,0-6.51,2.13,6.51,6.51,0,0,0-2.55,5.21,5.64,5.64,0,0,0,1.09,3.56,5.71,5.71,0,0,0,2.76,2c1.11.36,2.31.71,3.6,1s2.49.63,3.6.89a5.8,5.8,0,0,1,2.75,1.43,3.8,3.8,0,0,1,1.1,2.88,3.59,3.59,0,0,1-1.51,3,6.69,6.69,0,0,1-4.21,1.16,5.92,5.92,0,0,1-4.26-1.46,5.24,5.24,0,0,1-1.64-3.78h-3.28a7.88,7.88,0,0,0,2.6,5.7,9.37,9.37,0,0,0,6.44,2.1,10.55,10.55,0,0,0,6.59-1.92,5.92,5.92,0,0,0,2.5-4.92,6.2,6.2,0,0,0-1.09-3.8A5.74,5.74,0,0,0,503.2,243.63Z"></path><polygon class="cls-1" points="530.05 224.46 526.86 224.46 526.86 255.87 541.47 255.87 541.47 253.41 530.05 253.41 530.05 224.46"></polygon><polygon class="cls-1" points="548.98 224.46 545.8 224.46 545.8 255.87 560.4 255.87 560.4 253.41 548.98 253.41 548.98 224.46"></polygon><path class="cls-1" d="M579.11,226.92a12.53,12.53,0,0,1,6.19,1.51,10.09,10.09,0,0,1,4.19,4.27h3.87a13.83,13.83,0,0,0-5.67-6.37,16.69,16.69,0,0,0-8.58-2.18,15.61,15.61,0,0,0-11.35,4.52,16.59,16.59,0,0,0,0,23,15.64,15.64,0,0,0,11.35,4.5,16.79,16.79,0,0,0,8.58-2.18,13.83,13.83,0,0,0,5.67-6.37h-3.87a10.34,10.34,0,0,1-4.19,4.3,12.53,12.53,0,0,1-6.19,1.52,12.24,12.24,0,0,1-9.1-3.64,14.61,14.61,0,0,1,0-19.21A12.28,12.28,0,0,1,579.11,226.92Z"></path><path class="cls-1" d="M125.64,34.47A60.4,60.4,0,0,0,109.89,16h0A69.25,69.25,0,0,0,88.4,4.7,77.66,77.66,0,0,0,64.74.92H3.18A3.18,3.18,0,0,0,0,4.1V14.21a3.18,3.18,0,0,0,3.18,3.18H64.74A52.45,52.45,0,0,1,78,19.72a57.3,57.3,0,0,1,16.13,7.49,48.91,48.91,0,0,1,13.39,13.36C111.17,45.89,113,52.44,113,60c0,8.09-1.7,15-5.06,20.47A44.92,44.92,0,0,1,95.49,94a51.36,51.36,0,0,1-15.73,7.47,57.67,57.67,0,0,1-15,2.32H3.18A3.18,3.18,0,0,0,0,107v66.85A3.18,3.18,0,0,0,3.18,177H13.52a3.18,3.18,0,0,0,3.18-3.18V123.48a3.19,3.19,0,0,1,3.18-3.19H64.74a69.08,69.08,0,0,0,25.41-4.75,71.22,71.22,0,0,0,21.34-12.93,63.17,63.17,0,0,0,14.77-19.17,52.17,52.17,0,0,0,5.52-23.52A51.92,51.92,0,0,0,125.64,34.47Z"></path><path class="cls-1" d="M263.16,121.72V174.3a3.18,3.18,0,0,1-3.18,3.19h-9.65a3.18,3.18,0,0,1-3.18-3.19v-56A44.3,44.3,0,0,0,244,101.65,42.51,42.51,0,0,0,221.29,78.3a43.63,43.63,0,0,0-17.59-3.49,39.52,39.52,0,0,0-16.95,3.69,45.57,45.57,0,0,0-13.67,9.85,48,48,0,0,0-9.22,14,40.13,40.13,0,0,0-3.37,15.87,36,36,0,0,0,3.68,15.67,50.3,50.3,0,0,0,9.9,14,52.42,52.42,0,0,0,14,9.9,39.13,39.13,0,0,0,14.9,3.64,3.19,3.19,0,0,1,3,3.18v9.7a3.17,3.17,0,0,1-3.23,3.19c-4.76-.13-14-.9-22-4.68a65.32,65.32,0,0,1-18.84-12.76,60.59,60.59,0,0,1-12.77-18.85,57.42,57.42,0,0,1-4.66-23,60.46,60.46,0,0,1,16.35-41.41,57.76,57.76,0,0,1,42.87-18,55.87,55.87,0,0,1,23.1,4.91,62.35,62.35,0,0,1,18.94,13.11h0a62.26,62.26,0,0,1,13.7,21.23S263.13,106,263.16,121.72Z"></path><path class="cls-1" d="M337.58,71.16V61.48a3.16,3.16,0,0,0-3.18-3.18c-5.44.06-16.89.76-26.78,5.18a51.17,51.17,0,0,0-18.48,13.58h0a52.09,52.09,0,0,0-10.2,19.09,76.86,76.86,0,0,0-3.08,21.65v56.28a3.19,3.19,0,0,0,3.18,3.18h9.65a3.18,3.18,0,0,0,3.18-3.18V117.8a68.19,68.19,0,0,1,1.57-13.22,39.16,39.16,0,0,1,6.08-14.22c3-4.43,7.43-8.16,13-11.35,6.74-3.86,16.85-4.57,21.92-4.67A3.18,3.18,0,0,0,337.58,71.16Z"></path><path class="cls-1" d="M417.75,173v-9.72a3.17,3.17,0,0,0-3-3.18,47,47,0,0,1-27.71-10.58,43.68,43.68,0,0,1-10.91-13.66,41.18,41.18,0,0,1-4.33-19.39,41.3,41.3,0,0,1,3.58-17.1A46,46,0,0,1,385,85.42a45.46,45.46,0,0,1,13.89-9.3,41.67,41.67,0,0,1,16.56-3.37,40.51,40.51,0,0,1,18.28,4,50.56,50.56,0,0,1,13.86,10,44,44,0,0,1,8.63,12.56,40.84,40.84,0,0,1,1.9,5.12,3.16,3.16,0,0,1-3.09,4H416.4a3.18,3.18,0,0,0-3.18,3.19V121a3.18,3.18,0,0,0,3.18,3.18H472a3.18,3.18,0,0,0,3.18-3.18v-4.6a58.44,58.44,0,0,0-4.54-22.58,62.37,62.37,0,0,0-12.39-19.07h0a59.36,59.36,0,0,0-18.87-13.13,58.19,58.19,0,0,0-23.89-4.91,57.59,57.59,0,0,0-23.78,4.91,60.38,60.38,0,0,0-31.37,32.2,58.37,58.37,0,0,0-4.54,22.58,62,62,0,0,0,4,21.93,58.25,58.25,0,0,0,11.83,19.12A62.21,62.21,0,0,0,390.4,171c8.86,4.27,19,5.07,24.09,5.17A3.18,3.18,0,0,0,417.75,173Z"></path><path class="cls-1" d="M674.78,91.71A60.46,60.46,0,0,0,661.9,72.86a62.49,62.49,0,0,0-19-12.64,61.11,61.11,0,0,0-21.84-4.67,3.17,3.17,0,0,0-3.25,3.18v9.68a3.17,3.17,0,0,0,3,3.18c4,.14,11.27.82,17.22,3.67a44.79,44.79,0,0,1,13.66,9.83A44.26,44.26,0,0,1,660.5,99a43.5,43.5,0,0,1,3,16.05,41.3,41.3,0,0,1-3.79,18,45.48,45.48,0,0,1-10,13.67,44,44,0,0,1-14,8.74,44.5,44.5,0,0,1-33.74-.53,46.69,46.69,0,0,1-13.64-9.6,42.36,42.36,0,0,1-8.39-13,3.2,3.2,0,0,0-4.3-1.64L567,134.76a3.18,3.18,0,0,0-1.48,4.3c2.43,4.77,7.76,14.28,14.4,20.25A57.64,57.64,0,0,0,599,170.66a62.25,62.25,0,0,0,21.09,3.81,59,59,0,0,0,22.81-4.54,59.82,59.82,0,0,0,19-12.53,60.46,60.46,0,0,0,12.88-18.85A58.08,58.08,0,0,0,679.57,115,57.42,57.42,0,0,0,674.78,91.71Z"></path><path class="cls-1" d="M549.59,174.11V164a3.17,3.17,0,0,0-3.09-3.18c-4.94-.09-14.74-.78-21.42-4.47-5.5-3-9.83-6.61-12.75-10.89h0a38.27,38.27,0,0,1-6-13.79,67.24,67.24,0,0,1-1.56-13.46V57.81A3.19,3.19,0,0,1,508,54.62h36.94a3.18,3.18,0,0,0,3.19-3.18V41.33a3.19,3.19,0,0,0-3.19-3.18H508A3.18,3.18,0,0,1,504.8,35V3.18A3.18,3.18,0,0,0,501.62,0H491.28a3.18,3.18,0,0,0-3.18,3.18V35a3.18,3.18,0,0,1-3.18,3.18H471.74a3.18,3.18,0,0,0-3.18,3.18V51.44a3.18,3.18,0,0,0,3.18,3.18h13.18a3.18,3.18,0,0,1,3.18,3.19V118.1a79.7,79.7,0,0,0,2.95,21.61,49,49,0,0,0,28.36,32.42c9.89,4.37,21.5,5.09,27,5.16A3.16,3.16,0,0,0,549.59,174.11Z"></path></g></g></svg> 